<svg width="237" height="131" viewBox="0 0 237 131" fill="none" xmlns="http://www.w3.org/2000/svg">
<path d="M-3.57568 130.819L224.862 127.866L136.341 103.513L146.318 82.4073L202.935 74.6376L188.433 71.2746L149.451 69.5352L-3.57568 130.819Z" fill="#172B4D"/>
<path d="M122.766 23.0336L115.805 23.1496L57.9126 1.58008L123.347 38.6889L134.02 29.8756L122.766 23.0336Z" fill="#36B37E"/>
<path d="M122.767 23.0334L235.42 2.3916L179.151 57.0111L122.767 23.0334Z" fill="#172B4D"/>
<path d="M57.9126 1.58008L170.334 65.4768L145.042 70.1154L83.0884 74.6381L57.9126 1.58008Z" fill="white" stroke="#36B37E" stroke-width="1.43685" stroke-miterlimit="10" stroke-linejoin="round"/>
<path d="M170.333 65.4766L235.419 2.3916L188.432 71.2748L170.333 65.4766Z" fill="white" stroke="#36B37E" stroke-width="1.43685" stroke-miterlimit="10" stroke-linejoin="round"/>
<path d="M123.347 38.6893L152.467 14.6846L155.484 17.1198L146.318 51.7934L123.347 38.6893Z" fill="white" stroke="#36B37E" stroke-width="1.43685" stroke-miterlimit="10" stroke-linejoin="round"/>
<path d="M155.483 17.1191L181.819 54.4599L170.334 65.4766L146.318 51.7927L155.483 17.1191Z" fill="white" stroke="#36B37E" stroke-width="1.43685" stroke-miterlimit="10" stroke-linejoin="round"/>
<path d="M188.433 71.2748L145.042 70.1152L170.334 65.4766L188.433 71.2748Z" fill="white" stroke="#36B37E" stroke-width="1.43685" stroke-miterlimit="10" stroke-linejoin="round"/>
<path d="M38.5379 53.4158L29.2565 55.0393L-52.4199 38.5723L42.7146 74.0576L55.1284 60.0258L38.5379 53.4158Z" fill="white" stroke="#36B37E" stroke-width="1.43685" stroke-miterlimit="10" stroke-linejoin="round"/>
<path d="M38.5381 53.4162L184.256 2.3916L120.795 86.4663L38.5381 53.4162Z" fill="#C5E9DA" stroke="#36B37E" stroke-width="1.43685" stroke-miterlimit="10"/>
<path d="M-52.4199 38.5723L111.049 99.4539L78.216 111.05L-3.46047 129.953L-52.4199 38.5723Z" fill="white" stroke="#36B37E" stroke-width="1.43685" stroke-miterlimit="10" stroke-linejoin="round"/>
<path d="M111.049 99.4543L184.256 2.3916L136.341 103.513L111.049 99.4543Z" fill="white" stroke="#36B37E" stroke-width="1.43685" stroke-miterlimit="10" stroke-linejoin="round"/>
<path d="M42.7144 74.0583L76.4755 36.1377L81.0002 38.573L76.1275 86.4665L42.7144 74.0583Z" fill="#36B37E"/>
<path d="M81.0002 38.5723L123.811 82.523L111.049 99.4539L76.1274 86.4658L81.0002 38.5723Z" fill="white" stroke="#36B37E" stroke-width="1.43685" stroke-miterlimit="10" stroke-linejoin="round"/>
<path d="M136.341 103.513L78.2158 111.051L111.049 99.4541L136.341 103.513Z" fill="white" stroke="#36B37E" stroke-width="1.43685" stroke-miterlimit="10" stroke-linejoin="round"/>
</svg>
