<svg width="24" height="24" viewBox="0 0 24 24" fill="none" xmlns="http://www.w3.org/2000/svg">
<path fill-rule="evenodd" clip-rule="evenodd" d="M6.79289 14.7929C6.40237 15.1834 6.40237 15.8166 6.79289 16.2071C7.18342 16.5976 7.81658 16.5976 8.20711 16.2071L16.2071 8.20711C16.5976 7.81658 16.5976 7.18342 16.2071 6.79289C15.8166 6.40237 15.1834 6.40237 14.7929 6.79289L6.79289 14.7929ZM11.2929 15.2929C10.9024 15.6834 10.9024 16.3166 11.2929 16.7071C11.6834 17.0976 12.3166 17.0976 12.7071 16.7071L16.7071 12.7071C17.0976 12.3166 17.0976 11.6834 16.7071 11.2929C16.3166 10.9024 15.6834 10.9024 15.2929 11.2929L11.2929 15.2929Z" fill="#60C095"/>
</svg>
