<svg width="71" height="58" viewBox="0 0 71 58" fill="none" xmlns="http://www.w3.org/2000/svg">
<path d="M-35.2046 57.2471L65.5333 55.9446L26.4966 45.2054L30.8965 35.8981L55.8637 32.4718L49.4684 30.9888L32.2779 30.2217L-35.2046 57.2471Z" fill="#172B4D"/>
<path d="M20.5105 9.71559L17.4407 9.76673L-8.08918 0.254883L20.7663 16.6193L25.4732 12.7328L20.5105 9.71559Z" fill="#36B37E"/>
<path d="M20.5107 9.71504L70.1892 0.612305L45.3755 24.6987L20.5107 9.71504Z" fill="#172B4D"/>
<path d="M-8.08918 0.254883L41.4869 28.4324L30.3336 30.478L3.01301 32.4724L-8.08918 0.254883Z" fill="white" stroke="#36B37E" stroke-width="0.633632" stroke-miterlimit="10" stroke-linejoin="round"/>
<path d="M41.4871 28.4319L70.189 0.612305L49.4684 30.9888L41.4871 28.4319Z" fill="white" stroke="#36B37E" stroke-width="0.633632" stroke-miterlimit="10" stroke-linejoin="round"/>
<path d="M20.7665 16.619L33.6083 6.0332L34.9385 7.10712L30.8967 22.3977L20.7665 16.619Z" fill="white" stroke="#36B37E" stroke-width="0.633632" stroke-miterlimit="10" stroke-linejoin="round"/>
<path d="M34.9383 7.10742L46.5521 23.5742L41.4871 28.4324L30.8965 22.398L34.9383 7.10742Z" fill="white" stroke="#36B37E" stroke-width="0.633632" stroke-miterlimit="10" stroke-linejoin="round"/>
<path d="M49.4685 30.9886L30.3339 30.4772L41.4872 28.4316L49.4685 30.9886Z" fill="white" stroke="#36B37E" stroke-width="0.633632" stroke-miterlimit="10" stroke-linejoin="round"/>
<path d="M-16.6331 23.1134L47.6265 0.612305L19.6408 37.688L-16.6331 23.1134Z" fill="#C5E9DA" stroke="#36B37E" stroke-width="0.633632" stroke-miterlimit="10"/>
<path d="M-56.7443 16.5674L15.3431 43.4153L0.864263 48.5292L-35.1539 56.8648L-56.7443 16.5674Z" fill="white" stroke="#36B37E" stroke-width="0.633632" stroke-miterlimit="10" stroke-linejoin="round"/>
<path d="M15.3431 43.4156L47.6264 0.612305L26.4964 45.2055L15.3431 43.4156Z" fill="white" stroke="#36B37E" stroke-width="0.633632" stroke-miterlimit="10" stroke-linejoin="round"/>
<path d="M-14.7914 32.2166L0.0967395 15.4941L2.09206 16.5681L-0.0567445 37.6884L-14.7914 32.2166Z" fill="#36B37E"/>
<path d="M2.09206 16.5674L20.9709 35.949L15.343 43.4153L-0.0567474 37.6878L2.09206 16.5674Z" fill="white" stroke="#36B37E" stroke-width="0.633632" stroke-miterlimit="10" stroke-linejoin="round"/>
<path d="M26.4964 45.2049L0.864197 48.5289L15.3431 43.415L26.4964 45.2049Z" fill="white" stroke="#36B37E" stroke-width="0.633632" stroke-miterlimit="10" stroke-linejoin="round"/>
<mask id="mask0_73_258" style="mask-type:alpha" maskUnits="userSpaceOnUse" x="-58" y="16" width="74" height="41">
<path d="M-56.8336 16.7588L15.2077 43.3089L0.941376 48.2228L-35.0768 56.5584L-56.8336 16.7588Z" fill="white" stroke="#36B37E" stroke-width="0.633632" stroke-miterlimit="10" stroke-linejoin="round"/>
</mask>
<g mask="url(#mask0_73_258)">
<path d="M-13.4611 44.4895L-21.2889 44.7452L-24.9214 38.4551L-32.4423 38.7619L-28.9121 45.0009L-36.3306 45.2054L-32.9027 51.4955L-25.3307 51.3421L-17.6052 51.1375L-13.8192 57.7345L-5.73563 57.6322L-1.74498 64.3825H6.64561L2.55264 57.5299L-1.48917 50.8307L-9.67511 50.9841L-13.4611 44.4895Z" fill="#C5E9DA"/>
<path d="M2.75744 43.9268L-5.47966 44.2337L-1.48902 50.8306L6.85041 50.626L15.4457 50.4215L11.1992 43.6711L7.05506 37.0742L-1.23321 37.4322L2.75744 43.9268Z" fill="#36B37E"/>
<path d="M-0.977467 24.2383L-9.00992 24.7497L-5.17276 30.9886L3.01318 30.5795L-0.977467 24.2383Z" fill="#36B37E"/>
<path d="M15.5991 36.6649L11.3526 30.1191L3.01319 30.5794L7.05499 37.074L15.5991 36.6649Z" fill="#36B37E"/>
</g>
</svg>
