<svg width="98" height="17" viewBox="0 0 98 17" fill="none" xmlns="http://www.w3.org/2000/svg">
<path d="M8.10869 3.88423H9.9077C9.85337 1.90412 8.10266 0.467329 5.59129 0.467329C3.11011 0.467329 1.20848 1.88601 1.20848 4.01704C1.20848 5.73757 2.44001 6.74574 4.42616 7.28303L5.8871 7.68146C7.20919 8.0316 8.22943 8.46626 8.22943 9.56499C8.22943 10.7724 7.07638 11.5692 5.48866 11.5692C4.05187 11.5692 2.85656 10.9293 2.7479 9.5831H0.876448C0.997186 11.8228 2.72979 13.2053 5.50074 13.2053C8.4045 13.2053 10.0767 11.6779 10.0767 9.5831C10.0767 7.35547 8.09058 6.49219 6.52098 6.10582L5.31359 5.7919C4.34768 5.54439 3.06182 5.09162 3.06785 3.90838C3.06785 2.85795 4.02773 2.07919 5.54903 2.07919C6.96771 2.07919 7.97588 2.74325 8.10869 3.88423ZM16.6674 13.1871C18.6898 13.1871 20.1206 12.1911 20.5311 10.6818L18.8226 10.3739C18.4966 11.2493 17.7118 11.696 16.6855 11.696C15.1401 11.696 14.1017 10.6939 14.0534 8.90696H20.6458V8.26705C20.6458 4.91655 18.6415 3.60653 16.5407 3.60653C13.9568 3.60653 12.2544 5.57457 12.2544 8.42401C12.2544 11.3036 13.9327 13.1871 16.6674 13.1871ZM14.0595 7.55469C14.1319 6.23864 15.0858 5.09766 16.5527 5.09766C17.9533 5.09766 18.8709 6.13601 18.8769 7.55469H14.0595ZM27.155 13.1871C29.1773 13.1871 30.6081 12.1911 31.0186 10.6818L29.3102 10.3739C28.9842 11.2493 28.1994 11.696 27.1731 11.696C25.6276 11.696 24.5893 10.6939 24.541 8.90696H31.1333V8.26705C31.1333 4.91655 29.129 3.60653 27.0282 3.60653C24.4444 3.60653 22.742 5.57457 22.742 8.42401C22.742 11.3036 24.4202 13.1871 27.155 13.1871ZM24.547 7.55469C24.6195 6.23864 25.5733 5.09766 27.0403 5.09766C28.4408 5.09766 29.3585 6.13601 29.3645 7.55469H24.547ZM38.8 13H40.6654V8.65341H43.2009C46.0684 8.65341 47.4871 6.92081 47.4871 4.63885C47.4871 2.36293 46.0805 0.636363 43.2069 0.636363H38.8V13ZM40.6654 7.07173V2.23615H43.0077C44.855 2.23615 45.6096 3.23828 45.6096 4.63885C45.6096 6.03942 44.855 7.07173 43.0319 7.07173H40.6654ZM50.0391 13H51.8441V7.33736C51.8441 6.12393 52.7799 5.24858 54.0597 5.24858C54.434 5.24858 54.8566 5.31499 55.0015 5.35724V3.63068C54.8204 3.60653 54.4642 3.58842 54.2348 3.58842C53.1481 3.58842 52.2184 4.20419 51.8804 5.20028H51.7838V3.72727H50.0391V13ZM60.6474 13.1871C63.2614 13.1871 64.9698 11.2734 64.9698 8.40589C64.9698 5.52024 63.2614 3.60653 60.6474 3.60653C58.0334 3.60653 56.3249 5.52024 56.3249 8.40589C56.3249 11.2734 58.0334 13.1871 60.6474 13.1871ZM60.6534 11.6719C58.945 11.6719 58.1481 10.1808 58.1481 8.39986C58.1481 6.625 58.945 5.11577 60.6534 5.11577C62.3498 5.11577 63.1467 6.625 63.1467 8.39986C63.1467 10.1808 62.3498 11.6719 60.6534 11.6719ZM67.4947 3.72727V13.5795C67.4947 14.4428 67.1385 14.9137 66.2812 14.9137C66.1786 14.9137 66.1001 14.9137 65.9915 14.9077V16.4652H66.3416C68.2795 16.4893 69.2997 15.451 69.2997 13.5916V3.72727H67.4947ZM68.3881 2.29652C69.0099 2.29652 69.5291 1.81357 69.5291 1.22195C69.5291 0.630326 69.0099 0.141335 68.3881 0.141335C67.7603 0.141335 67.2471 0.630326 67.2471 1.22195C67.2471 1.81357 67.7603 2.29652 68.3881 2.29652ZM76.2345 13.1871C78.2569 13.1871 79.6876 12.1911 80.0981 10.6818L78.3897 10.3739C78.0637 11.2493 77.2789 11.696 76.2526 11.696C74.7072 11.696 73.6688 10.6939 73.6205 8.90696H80.2128V8.26705C80.2128 4.91655 78.2086 3.60653 76.1077 3.60653C73.5239 3.60653 71.8215 5.57457 71.8215 8.42401C71.8215 11.3036 73.4998 13.1871 76.2345 13.1871ZM73.6265 7.55469C73.699 6.23864 74.6528 5.09766 76.1198 5.09766C77.5204 5.09766 78.438 6.13601 78.444 7.55469H73.6265ZM86.6315 13.1871C88.8229 13.1871 90.2416 11.8711 90.4408 10.0661H88.684C88.4546 11.0682 87.6759 11.6598 86.6436 11.6598C85.1162 11.6598 84.1322 10.386 84.1322 8.36364C84.1322 6.37749 85.1343 5.12784 86.6436 5.12784C87.7906 5.12784 88.4909 5.85227 88.684 6.72159H90.4408C90.2476 4.85014 88.7203 3.60653 86.6134 3.60653C83.9994 3.60653 82.309 5.57457 82.309 8.40589C82.309 11.201 83.939 13.1871 86.6315 13.1871ZM97.2096 3.72727H95.3079V1.50568H93.5029V3.72727H92.1446V5.17614H93.5029V10.6516C93.4969 12.3359 94.7827 13.1509 96.2075 13.1207C96.781 13.1147 97.1673 13.006 97.3786 12.9276L97.0526 11.4364C96.9319 11.4606 96.7085 11.5149 96.4187 11.5149C95.8332 11.5149 95.3079 11.3217 95.3079 10.2773V5.17614H97.2096V3.72727Z" fill="white"/>
</svg>
