<svg width="327" height="125" viewBox="0 0 327 125" fill="none" xmlns="http://www.w3.org/2000/svg">
<path d="M62.5714 7.90909V37H68.5373V17.9943H68.7788L76.3072 36.858H80.3697L87.8981 18.0653H88.1396V37H94.1055V7.90909H86.5202L78.5089 27.4545H78.168L70.1566 7.90909H62.5714ZM102.795 45.1392C107.298 45.1392 109.699 42.8523 110.92 39.358L119.4 15.2102L112.994 15.1818L108.434 31.2045H108.207L103.69 15.1818H97.3263L105.153 37.625L104.798 38.5483C103.946 40.5227 102.483 40.6648 100.352 39.9972L98.9883 44.5284C99.8548 44.8835 101.261 45.1392 102.795 45.1392ZM131.868 37H138.019V26.6875H142.507L148.019 37H154.809L148.63 25.6932C151.939 24.2727 153.772 21.3892 153.772 17.4119C153.772 11.6307 149.951 7.90909 143.346 7.90909H131.868V37ZM138.019 21.7443V12.9375H142.167C145.718 12.9375 147.436 14.5142 147.436 17.4119C147.436 20.2955 145.718 21.7443 142.195 21.7443H138.019ZM167.596 37.4261C172.994 37.4261 176.63 34.7983 177.483 30.75L171.886 30.3807C171.275 32.0426 169.713 32.9091 167.696 32.9091C164.67 32.9091 162.752 30.9062 162.752 27.6534V27.6392H177.61V25.9773C177.61 18.5625 173.122 14.8977 167.355 14.8977C160.934 14.8977 156.772 19.4574 156.772 26.1903C156.772 33.108 160.877 37.4261 167.596 37.4261ZM162.752 23.8892C162.88 21.4034 164.77 19.4148 167.454 19.4148C170.082 19.4148 171.9 21.2898 171.914 23.8892H162.752ZM191.417 37.4261C197.227 37.4261 200.877 34.017 201.162 29.0028H195.451C195.096 31.3324 193.562 32.6392 191.488 32.6392C188.662 32.6392 186.829 30.267 186.829 26.0909C186.829 21.9716 188.676 19.6136 191.488 19.6136C193.704 19.6136 195.125 21.0767 195.451 23.25H201.162C200.906 18.2074 197.085 14.8977 191.389 14.8977C184.77 14.8977 180.679 19.4858 180.679 26.1761C180.679 32.8097 184.699 37.4261 191.417 37.4261ZM214.979 37.4261C220.377 37.4261 224.013 34.7983 224.865 30.75L219.269 30.3807C218.658 32.0426 217.096 32.9091 215.078 32.9091C212.053 32.9091 210.135 30.9062 210.135 27.6534V27.6392H224.993V25.9773C224.993 18.5625 220.505 14.8977 214.738 14.8977C208.317 14.8977 204.155 19.4574 204.155 26.1903C204.155 33.108 208.26 37.4261 214.979 37.4261ZM210.135 23.8892C210.263 21.4034 212.152 19.4148 214.837 19.4148C217.465 19.4148 219.283 21.2898 219.297 23.8892H210.135ZM234.993 24.3864C235.007 21.5739 236.684 19.9261 239.127 19.9261C241.556 19.9261 243.019 21.517 243.005 24.1875V37H249.056V23.108C249.056 18.0227 246.073 14.8977 241.527 14.8977C238.289 14.8977 235.945 16.4886 234.965 19.0312H234.709V15.1818H228.942V37H234.993V24.3864ZM265.43 15.1818H261.325V9.95455H255.274V15.1818H252.291V19.7273H255.274V31.0909C255.245 35.3665 258.157 37.483 262.547 37.2983C264.109 37.2415 265.217 36.929 265.828 36.7301L264.876 32.2273C264.578 32.2841 263.939 32.4261 263.37 32.4261C262.163 32.4261 261.325 31.9716 261.325 30.2955V19.7273H265.43V15.1818ZM109.706 89H115.7L121.225 69.9801H121.453L126.993 89H132.987L141.311 59.9091H134.592L129.777 80.1648H129.521L124.223 59.9091H118.47L113.157 80.1222H112.916L108.1 59.9091H101.382L109.706 89ZM152.003 89.4261C158.623 89.4261 162.742 84.8949 162.742 78.1761C162.742 71.4148 158.623 66.8977 152.003 66.8977C145.384 66.8977 141.265 71.4148 141.265 78.1761C141.265 84.8949 145.384 89.4261 152.003 89.4261ZM152.032 84.7386C148.978 84.7386 147.415 81.9403 147.415 78.1335C147.415 74.3267 148.978 71.5142 152.032 71.5142C155.029 71.5142 156.591 74.3267 156.591 78.1335C156.591 81.9403 155.029 84.7386 152.032 84.7386ZM166.676 89H172.728V76.6562C172.728 73.9716 174.688 72.125 177.358 72.125C178.196 72.125 179.347 72.267 179.915 72.4517V67.0824C179.375 66.9545 178.623 66.8693 178.012 66.8693C175.569 66.8693 173.566 68.2898 172.77 70.9886H172.543V67.1818H166.676V89ZM183.044 89H189.095V82.0682L190.728 80.2074L196.68 89H203.768L195.26 76.6278L203.356 67.1818H196.41L189.422 75.4631H189.095V59.9091H183.044V89ZM224.478 73.4034C223.939 69.3835 220.7 66.8977 215.189 66.8977C209.606 66.8977 205.927 69.483 205.941 73.6875C205.927 76.9545 207.987 79.071 212.248 79.9233L216.027 80.6761C217.93 81.0597 218.797 81.7557 218.825 82.8494C218.797 84.142 217.39 85.0653 215.274 85.0653C213.115 85.0653 211.68 84.142 211.311 82.3665L205.359 82.679C205.927 86.8551 209.478 89.4261 215.26 89.4261C220.913 89.4261 224.961 86.5426 224.975 82.2386C224.961 79.0852 222.902 77.196 218.669 76.3295L214.72 75.5341C212.689 75.0938 211.936 74.3977 211.95 73.3466C211.936 72.0398 213.413 71.1875 215.288 71.1875C217.39 71.1875 218.64 72.3381 218.939 73.7443L224.478 73.4034Z" fill="#172B4D"/>
<rect x="139.5" y="121" width="48" height="4" rx="2" fill="#36B37E"/>
</svg>
